<svg width="124" height="30" viewBox="0 0 124 30" fill="none" xmlns="http://www.w3.org/2000/svg">
<g clip-path="url(#clip0)">
<path d="M16.5215 13.902L1.74135 22.4353L0 19.5341L14.8299 10.9721C16.1855 10.1894 16.6553 8.45678 15.8795 7.11311C15.1037 5.76944 13.3686 5.30881 12.0123 6.09187C10.6568 6.87446 10.1876 8.60669 10.9638 9.95118L11.5209 10.9161L8.5858 12.6107L8.02869 11.6457C6.31738 8.68169 7.3464 4.87917 10.3207 3.16195C13.2931 1.44586 17.1031 2.45573 18.8139 5.41893C20.5241 8.38098 19.495 12.1853 16.5215 13.902ZM27.8729 8.64717C29.2283 7.86458 29.6976 6.13235 28.9213 4.78786C28.1457 3.44446 26.4111 2.9841 25.0552 3.76691C23.6994 4.54973 23.2296 6.28183 24.0056 7.62593L24.5628 8.59087L21.6283 10.285L21.0712 9.32011C19.36 6.35612 20.3893 2.55426 23.3636 0.836997C26.338 -0.880264 30.1452 0.129285 31.8564 3.09327C33.5675 6.05692 32.536 9.86055 29.5612 11.578L1.71395 27.6556L0.219052 24.613L27.8729 8.64717ZM31.4969 26.3399C28.5234 28.0566 24.7139 27.0451 23.0037 24.083L22.4465 23.118L25.381 21.4238L25.9381 22.3888C26.7138 23.7325 28.449 24.1931 29.8053 23.41C31.1608 22.6274 31.63 20.8952 30.8538 19.5507C30.078 18.207 28.344 17.7467 26.9877 18.5298L7.12072 29.9999L5.37937 27.0987L25.2961 15.5999C28.2685 13.8837 32.0781 14.893 33.7889 17.8561C35.4986 20.8174 34.4683 24.6244 31.4969 26.3399Z" fill="#026AFF"/>
<path d="M38.8892 29.2457V1.14053H48.7337C52.1439 1.14053 54.7305 1.79361 56.4935 3.09979C58.2566 4.40597 59.1381 6.32015 59.1381 8.84243C59.1381 10.2194 58.7842 11.4322 58.0764 12.481C57.3686 13.5298 56.3842 14.2987 55.123 14.7878C56.5643 15.1481 57.7 15.8752 58.53 16.969C59.3601 18.0628 59.7751 19.4012 59.7751 20.984C59.7751 23.6865 58.9129 25.7326 57.1885 27.1224C55.464 28.5122 53.0061 29.22 49.8147 29.2457H38.8892ZM44.6801 17.0076V24.5937H49.641C51.0051 24.5937 52.0699 24.2688 52.8356 23.6189C53.6013 22.969 53.9842 22.0714 53.9842 20.9261C53.9842 18.3524 52.6523 17.0462 49.9884 17.0076H44.6801ZM44.6801 12.9154H48.9654C51.8866 12.8639 53.3471 11.6993 53.3471 9.42153C53.3471 8.14752 52.9772 7.23064 52.2372 6.67085C51.4973 6.11106 50.3294 5.83117 48.7337 5.83117H44.6801V12.9154ZM74.6655 13.591C73.9062 13.488 73.2371 13.4365 72.658 13.4365C70.5475 13.4365 69.1641 14.1507 68.5078 15.5792V29.2457H62.9292V8.35986H68.1989L68.3534 10.8499C69.473 8.93251 71.0236 7.9738 73.0054 7.9738C73.6231 7.9738 74.2022 8.05745 74.7427 8.22474L74.6655 13.591ZM82.4138 29.2457H76.8159V8.35986H82.4138V29.2457ZM76.4877 2.95501C76.4877 2.11855 76.7676 1.43008 77.3274 0.889585C77.8872 0.349097 78.6497 0.0788574 79.6148 0.0788574C80.5671 0.0788574 81.3263 0.349097 81.8926 0.889585C82.4588 1.43008 82.7419 2.11855 82.7419 2.95501C82.7419 3.80435 82.4556 4.49925 81.8829 5.03974C81.3103 5.58023 80.5542 5.85047 79.6148 5.85047C78.6754 5.85047 77.9194 5.58023 77.3467 5.03974C76.774 4.49925 76.4877 3.80435 76.4877 2.95501ZM92.5942 24.7481H102.806V29.2457H85.4714V25.8484L95.2966 12.8768H85.7609V8.35986H102.497V11.6607L92.5942 24.7481ZM117.58 29.2457C117.323 28.7438 117.136 28.1197 117.02 27.3733C115.669 28.879 113.913 29.6318 111.751 29.6318C109.704 29.6318 108.009 29.0398 106.664 27.8559C105.319 26.672 104.647 25.1792 104.647 23.3776C104.647 21.1642 105.467 19.4655 107.108 18.2816C108.749 17.0977 111.12 16.4993 114.221 16.4864H116.789V15.2896C116.789 14.3245 116.541 13.5524 116.046 12.9733C115.55 12.3942 114.768 12.1046 113.7 12.1046C112.761 12.1046 112.024 12.3298 111.49 12.7802C110.956 13.2306 110.689 13.8483 110.689 14.6333H105.11C105.11 13.4237 105.484 12.3041 106.23 11.2746C106.976 10.2451 108.032 9.43762 109.396 8.85209C110.76 8.26656 112.291 7.9738 113.99 7.9738C116.564 7.9738 118.606 8.62045 120.118 9.91376C121.631 11.207 122.387 13.0247 122.387 15.3668V24.42C122.399 26.4018 122.676 27.9009 123.217 28.9176V29.2457H117.58ZM112.967 25.3658C113.79 25.3658 114.55 25.1824 115.244 24.8157C115.939 24.4489 116.454 23.9567 116.789 23.339V19.7486H114.704C111.911 19.7486 110.425 20.7138 110.245 22.6441L110.226 22.9722C110.226 23.6672 110.47 24.2398 110.959 24.6902C111.448 25.1406 112.117 25.3658 112.967 25.3658Z" fill="#026AFF"/>
</g>
<defs>
<clipPath id="clip0">
<rect width="124" height="30" fill="white"/>
</clipPath>
</defs>
</svg>
